# xmcd
#
# Track frame offsets: 
#        150
#        16290
#        34401
#        54375
#        71062
#        88503
#        104371
#        120911
#        136701
#        154991
#        172773
#        189560
#        206776
#        225469
#        240236
#        263032
#        281090
#        297955
#
# Disc length: 4444 seconds
#
# Revision: 0
# Processed by: cddbd v1.5.2PL0 Copyright (c) Steve Scherf et al.
# Submitted via: ExactAudioCopy v0.99pb5
#
DISCID=f3115a12
DTITLE=ENRIQUE IGLESIAS - GREATEST HITS
DYEAR=1900
DGENRE=FLAC
TTITLE0=Balamos
TTITLE1=Away
TTITLE2=Hero
TTITLE3=Be with you
TTITLE4=Takin' back my love
TTITLE5=Rhythm divine
TTITLE6=Do you know ?
TTITLE7=Tired of being sorry
TTITLE8=Escape
TTITLE9=Could i have this kiss forever 
TTITLE10=Not in love
TTITLE11=Don't turn off the lights
TTITLE12=Love to see you cry
TTITLE13=May be
TTITLE14=Addicted
TTITLE15=Somebody's me
TTITLE16=Can you hear me
TTITLE17=Hero ( Remix)
EXTD=
EXTT0=
EXTT1=
EXTT2=
EXTT3=
EXTT4=
EXTT5=
EXTT6=
EXTT7=
EXTT8=
EXTT9=
EXTT10=
EXTT11=
EXTT12=
EXTT13=
EXTT14=
EXTT15=
EXTT16=
EXTT17=
PLAYORDER=
